<svg width="180" height="45" viewBox="0 0 180 45" fill="none" xmlns="http://www.w3.org/2000/svg">
<g clip-path="url(#clip0_285_97)">
<path d="M72.0439 9.77725C72.6987 9.64819 73.3099 9.56202 73.8337 9.51912H75.2307C75.7983 9.51912 76.4094 9.51912 77.0205 9.56202C77.6316 9.60492 78.1992 9.64819 78.6794 9.77744L83.394 29.1856L88.72 9.77725C89.6803 9.6051 90.6844 9.51912 91.6885 9.51912H93.0853C93.5656 9.56202 94.1767 9.64819 94.9188 9.77725L86.4937 37.2762C86.1445 38.352 85.7515 39.2558 85.2713 39.9873C84.7912 40.7188 84.2236 41.2783 83.6125 41.6657C83.0014 42.0531 82.3029 42.3541 81.5608 42.5262C80.7538 42.6677 79.9358 42.7397 79.1161 42.7415C78.2866 42.7415 77.5883 42.6984 76.9335 42.6124C76.2787 42.4833 75.6239 42.3543 74.9691 42.182C74.9254 42.0529 74.9254 41.9238 74.9254 41.8377V41.4935C74.9254 40.805 75.0126 40.1594 75.1872 39.557C75.3182 38.9115 75.5365 38.3091 75.7548 37.7496C76.0167 37.8355 76.3659 37.9217 76.8024 38.0077C77.2391 38.0508 77.6755 38.0939 78.112 38.0939C78.4613 38.0939 78.8105 38.0939 79.1598 38.0508C79.509 38.0077 79.8583 37.8786 80.2075 37.6634C80.5131 37.4483 80.8186 37.104 81.1242 36.6307C81.4297 36.1573 81.6918 35.5116 81.9099 34.6942L82.6521 32.026C82.3466 32.069 81.9973 32.069 81.6044 32.1119H79.4653C79.1598 32.1119 78.8979 32.069 78.6796 32.026L72.0439 9.77725ZM97.9308 9.77725C98.9785 9.6051 100.026 9.51912 101.03 9.51912C102.034 9.51912 103.082 9.6051 104.13 9.77725V21.5686C104.13 22.7305 104.217 23.7203 104.435 24.452C104.61 25.2264 104.915 25.829 105.308 26.2595C105.701 26.7328 106.181 27.0338 106.749 27.2062C107.316 27.4212 108.015 27.5074 108.801 27.5074C109.892 27.5074 110.765 27.4212 111.507 27.2062V9.77725C112.555 9.6051 113.559 9.51912 114.563 9.51912C115.567 9.51912 116.615 9.6051 117.662 9.77725V31.1652C116.746 31.4664 115.48 31.7678 113.996 32.1119C112.424 32.4133 110.852 32.5424 109.194 32.5424C107.709 32.5424 106.269 32.4133 104.915 32.1981C103.562 31.9829 102.34 31.4664 101.336 30.7348C100.288 30.0033 99.4587 28.8844 98.8474 27.4645C98.2361 26.0446 97.9308 24.1077 97.9308 21.7407V9.77725ZM136.826 0.567977C137.35 0.48181 137.874 0.438913 138.398 0.395829C138.878 0.352746 139.402 0.352746 139.882 0.352746C140.362 0.352746 140.886 0.352746 141.41 0.395829C141.934 0.438913 142.458 0.48181 142.982 0.567977V31.2943C141.628 31.6817 140.231 32.026 138.835 32.2412C137.394 32.4562 135.691 32.5424 133.683 32.5424C132.156 32.5424 130.671 32.3272 129.274 31.8969C127.834 31.5095 126.611 30.8209 125.52 29.9173C124.428 29.0136 123.599 27.8517 122.988 26.4316C122.333 25.0113 122.028 23.247 122.028 21.1814C122.028 19.5461 122.29 17.9967 122.857 16.5336C123.381 15.1135 124.167 13.8655 125.171 12.7898C126.131 11.7138 127.354 10.8961 128.794 10.2506C130.235 9.64819 131.806 9.34697 133.552 9.34697C134.076 9.34697 134.644 9.34697 135.211 9.39006C135.779 9.43314 136.303 9.56202 136.826 9.69127V0.567977ZM136.826 14.382C136.259 14.2529 135.779 14.1239 135.43 14.0808C135.037 14.0377 134.6 14.0377 134.033 14.0377C133.072 14.0377 132.243 14.2529 131.544 14.597C130.802 14.9844 130.235 15.5009 129.755 16.1464C129.275 16.7919 128.969 17.5664 128.751 18.4272C128.532 19.3308 128.401 20.2346 128.401 21.1812C128.401 22.3433 128.532 23.3331 128.838 24.1506C129.143 24.9681 129.536 25.6568 130.06 26.1302C130.54 26.6038 131.152 26.9909 131.85 27.1631C132.548 27.3783 133.291 27.5074 134.12 27.5074C134.6 27.5074 135.08 27.4643 135.473 27.4212C135.866 27.3781 136.346 27.2922 136.826 27.1631V14.382ZM150.185 14.4249H147.26C147.172 14.0377 147.129 13.6505 147.085 13.22C146.998 12.8326 146.998 12.4455 146.998 12.0581C146.998 11.2835 147.085 10.5089 147.26 9.77725H156.252V32.026C155.205 32.1981 154.201 32.2841 153.197 32.2841C152.236 32.2841 151.232 32.1981 150.184 32.026L150.185 14.4249ZM149.268 6.03326C149.093 5.04346 149.006 4.09674 149.006 3.15001C149.006 2.24637 149.093 1.25657 149.268 0.266765C149.748 0.180598 150.272 0.1377 150.883 0.051533C151.45 0.00844955 151.931 0.00844955 152.411 0.00844955C152.891 0.00844955 153.459 0.00844955 154.026 0.051533C154.594 0.1377 155.161 0.180598 155.641 0.266765C155.729 0.740125 155.772 1.21349 155.816 1.68685C155.86 2.16021 155.859 2.67665 155.859 3.15001C155.859 3.62337 155.859 4.09674 155.816 4.5701C155.772 5.04346 155.729 5.5599 155.641 6.03345C155.161 6.11943 154.637 6.16233 154.07 6.20541C153.459 6.24849 152.935 6.24849 152.455 6.24849C151.974 6.24849 151.45 6.24849 150.883 6.20541C150.315 6.16233 149.748 6.11943 149.268 6.03326ZM160.487 31.5095L170.658 14.468H162.015C161.927 14.0377 161.884 13.6074 161.84 13.22C161.797 12.8326 161.796 12.4024 161.796 12.015C161.796 11.6276 161.796 11.2833 161.84 10.8961C161.884 10.5518 161.927 10.1644 162.015 9.77725H179.782L180 10.2935L169.654 27.3352H179.258C179.345 27.7655 179.389 28.196 179.433 28.5832C179.476 28.9704 179.476 29.4008 179.476 29.7882C179.476 30.1756 179.476 30.5199 179.433 30.864C179.389 31.2514 179.345 31.6386 179.258 32.026H160.836L160.487 31.5095Z" fill="black"/>
<path d="M95.8132 41.404C96.0266 41.4796 96.2483 41.547 96.4789 41.6059C96.7008 41.6647 96.9141 41.69 97.1275 41.69C97.3065 41.69 97.4688 41.6733 97.6224 41.6311C97.7674 41.589 97.904 41.5301 98.0149 41.4543C98.1259 41.3786 98.2112 41.2779 98.271 41.1684C98.3307 41.0588 98.3648 40.9245 98.3648 40.773C98.3648 40.6636 98.3392 40.5628 98.2879 40.4786C98.2367 40.3945 98.1685 40.3189 98.0916 40.2515C98.0148 40.1841 97.921 40.1169 97.8102 40.058C97.6994 39.9992 97.5968 39.9403 97.4858 39.8729C97.1188 39.6627 96.8372 39.4355 96.624 39.2084C96.4107 38.9813 96.2998 38.7204 96.2998 38.4092C96.2998 38.1065 96.3508 37.8372 96.4618 37.5932C96.5729 37.3577 96.7264 37.1558 96.9225 36.9959C97.1187 36.8361 97.3664 36.71 97.6478 36.6175C97.9296 36.5334 98.2453 36.4912 98.5952 36.4912C98.9109 36.4912 99.1754 36.5165 99.4058 36.5586C99.6361 36.6008 99.8752 36.6763 100.123 36.7688C100.097 36.9204 100.063 37.0801 100.003 37.2483C99.9434 37.4166 99.8665 37.5848 99.7642 37.7447C99.6022 37.6689 99.4314 37.6017 99.2607 37.5512C99.0816 37.5007 98.8596 37.4754 98.578 37.4754C98.4757 37.4754 98.3648 37.484 98.2538 37.5007C98.1446 37.5163 98.0382 37.5474 97.9381 37.5932C97.8443 37.6437 97.7589 37.7111 97.6992 37.7952C97.6395 37.8793 97.6052 37.9885 97.6052 38.1232C97.6052 38.3167 97.6736 38.468 97.8187 38.5943C97.9552 38.7206 98.1344 38.8383 98.3476 38.9644C98.5439 39.0738 98.7231 39.1746 98.8853 39.284C99.0475 39.3934 99.1923 39.5028 99.3204 39.629C99.4485 39.7553 99.5423 39.8898 99.6192 40.0413C99.6874 40.201 99.7215 40.3776 99.7215 40.5795C99.7215 40.8655 99.6704 41.1431 99.5679 41.404C99.4582 41.6658 99.2923 41.9011 99.0816 42.0937C98.8596 42.2872 98.578 42.4471 98.2452 42.5649C97.9123 42.6826 97.5114 42.7415 97.0506 42.7415C96.513 42.7415 95.9925 42.6404 95.472 42.4471C95.4977 42.2789 95.5402 42.1106 95.6001 41.9338C95.6512 41.7656 95.728 41.589 95.8134 41.404H95.8132ZM102.392 42.7415C101.804 42.7415 101.377 42.5901 101.104 42.2872C100.822 41.9845 100.686 41.5723 100.686 41.0423C100.686 40.7058 100.737 40.3693 100.839 40.0244C100.939 39.6951 101.095 39.3849 101.3 39.1074C101.505 38.8381 101.761 38.6196 102.077 38.443C102.384 38.2747 102.742 38.1904 103.161 38.1904C103.749 38.1904 104.184 38.3419 104.466 38.6532C104.739 38.9644 104.876 39.3767 104.876 39.9067C104.874 40.2536 104.825 40.5988 104.731 40.9329C104.628 41.2694 104.474 41.5723 104.27 41.8413C104.065 42.1104 103.809 42.3292 103.493 42.4891C103.177 42.6573 102.811 42.7415 102.392 42.7415ZM102.503 41.833C102.717 41.833 102.905 41.7656 103.05 41.6311C103.195 41.4967 103.323 41.3282 103.417 41.1264C103.51 40.9329 103.57 40.7225 103.613 40.4954C103.655 40.2768 103.672 40.0747 103.672 39.8981C103.672 39.385 103.459 39.1243 103.032 39.1243C102.819 39.1243 102.64 39.1915 102.495 39.3345C102.35 39.4775 102.239 39.6458 102.145 39.8476C102.051 40.0495 101.991 40.2599 101.957 40.487C101.919 40.6838 101.899 40.8838 101.897 41.0842C101.897 41.5806 102.102 41.833 102.503 41.833ZM106.531 38.1232C106.591 37.8288 106.642 37.5679 106.668 37.3408C106.693 37.1222 106.702 36.9371 106.702 36.7855V36.6258C106.693 36.5839 106.693 36.5417 106.685 36.4912C106.779 36.4745 106.889 36.4578 107.017 36.4492C107.145 36.4407 107.248 36.4409 107.342 36.4409C107.504 36.4409 107.692 36.4576 107.888 36.4912C107.914 36.5753 107.93 36.6847 107.93 36.811C107.93 36.9287 107.922 37.0634 107.897 37.2147C107.871 37.3661 107.845 37.5343 107.811 37.7111L107.154 41.0928C107.137 41.1853 107.128 41.2692 107.128 41.3282C107.128 41.4207 107.145 41.488 107.171 41.5385C107.197 41.589 107.222 41.6311 107.265 41.6564C107.307 41.6816 107.35 41.6984 107.401 41.7067C107.453 41.7151 107.504 41.7234 107.555 41.7234C107.581 41.7234 107.623 41.7153 107.683 41.7067C107.743 41.6982 107.803 41.69 107.854 41.6733C107.879 41.7656 107.905 41.875 107.93 41.9843C107.948 42.0937 107.956 42.2115 107.956 42.3292V42.4555C107.948 42.4974 107.948 42.5396 107.939 42.5818C107.854 42.6152 107.743 42.6404 107.606 42.6657C107.47 42.6824 107.316 42.6909 107.154 42.6909C106.77 42.6909 106.463 42.5985 106.241 42.405C106.019 42.2198 105.908 41.9255 105.908 41.5218C105.908 41.446 105.917 41.362 105.925 41.2692C105.934 41.1853 105.951 41.0928 105.968 41.0001L106.531 38.1232ZM109.603 38.2914C109.714 38.2747 109.816 38.2578 109.927 38.2494C110.03 38.2409 110.132 38.2409 110.226 38.2409C110.422 38.2409 110.618 38.2578 110.815 38.2914L110.337 40.9581C110.313 41.0631 110.302 41.1703 110.303 41.2777C110.303 41.446 110.337 41.5637 110.414 41.6311C110.491 41.6985 110.593 41.732 110.729 41.732C110.806 41.732 110.9 41.7153 111.003 41.6731C111.096 41.6311 111.199 41.5554 111.301 41.4207C111.404 41.2944 111.506 41.118 111.6 40.8907C111.694 40.6634 111.779 40.3609 111.847 39.9823L112.163 38.2914C112.385 38.2578 112.59 38.2409 112.786 38.2409C112.982 38.2409 113.179 38.2578 113.375 38.2914L112.914 40.773C112.854 41.1264 112.803 41.4376 112.777 41.7067C112.743 41.9843 112.726 42.1947 112.726 42.3461V42.4974C112.726 42.5396 112.726 42.5901 112.735 42.6404C112.547 42.6742 112.359 42.6909 112.171 42.6909C112.009 42.6909 111.839 42.6742 111.642 42.6404C111.634 42.5985 111.617 42.5396 111.608 42.4807C111.6 42.4219 111.591 42.3292 111.591 42.2031C111.591 42.1526 111.591 42.1021 111.6 42.0518C111.6 42.0012 111.608 41.9422 111.617 41.8666C111.549 41.9843 111.463 42.0937 111.361 42.2031C111.258 42.3125 111.139 42.405 111.011 42.4807C110.883 42.5565 110.738 42.6237 110.593 42.6657C110.439 42.7078 110.286 42.7331 110.132 42.7331C109.791 42.7331 109.526 42.649 109.339 42.4722C109.142 42.3039 109.048 42.018 109.048 41.6226C109.048 41.5385 109.057 41.446 109.065 41.3533C109.074 41.2607 109.091 41.16 109.108 41.0506L109.603 38.2914ZM114.894 39.1999H114.237C114.237 39.0485 114.245 38.8972 114.271 38.7542C114.296 38.6112 114.339 38.4513 114.399 38.2914H115.056L115.107 38.039C115.133 37.8961 115.15 37.7614 115.158 37.6353C115.167 37.5092 115.167 37.4082 115.167 37.3241C115.312 37.2316 115.5 37.1644 115.721 37.1222C115.943 37.0801 116.148 37.0634 116.336 37.0634C116.361 37.1475 116.378 37.2567 116.378 37.3828C116.378 37.4756 116.37 37.5679 116.362 37.6689C116.344 37.7783 116.327 37.8877 116.302 38.0138L116.25 38.2914H117.309C117.309 38.4597 117.292 38.611 117.266 38.7542C117.24 38.8974 117.198 39.0402 117.147 39.1999H116.088L115.79 40.8571C115.781 40.9329 115.773 41.0086 115.764 41.0759C115.755 41.1431 115.747 41.2105 115.747 41.2694C115.747 41.4124 115.781 41.5301 115.849 41.6142C115.918 41.6984 116.046 41.7405 116.233 41.7405C116.327 41.7405 116.413 41.732 116.489 41.7153C116.566 41.7067 116.634 41.69 116.694 41.6731C116.771 41.8328 116.805 42.0518 116.805 42.3125V42.4471C116.805 42.4891 116.805 42.5396 116.797 42.5816C116.549 42.6573 116.259 42.6911 115.918 42.6911C115.44 42.6911 115.09 42.6068 114.86 42.4302C114.629 42.2536 114.51 41.9676 114.51 41.5554C114.51 41.4712 114.518 41.3871 114.527 41.2946C114.535 41.2022 114.552 41.1095 114.569 41.0001L114.894 39.1999ZM118.597 39.1999H118.06L118.051 39.0905C118.051 38.9475 118.068 38.8045 118.094 38.6782C118.119 38.552 118.162 38.4261 118.222 38.2914H119.945L119.169 42.6406C118.956 42.674 118.751 42.6909 118.554 42.6909C118.375 42.6909 118.187 42.6742 117.983 42.6404L118.597 39.1999ZM118.845 37.5596C118.837 37.3707 118.851 37.1816 118.887 36.9959C118.913 36.8193 118.964 36.6342 119.032 36.4407C119.135 36.4156 119.246 36.4073 119.357 36.3904C119.468 36.3818 119.57 36.3818 119.664 36.3818C119.757 36.3818 119.86 36.3818 119.971 36.3904C120.082 36.4071 120.184 36.4156 120.278 36.4409C120.278 36.6342 120.261 36.8277 120.227 37.0043C120.193 37.1809 120.142 37.3661 120.073 37.5596C119.971 37.5763 119.869 37.5848 119.758 37.5932C119.647 37.6015 119.544 37.6017 119.451 37.6017C119.365 37.6017 119.263 37.6017 119.152 37.5932C119.041 37.5846 118.938 37.5765 118.845 37.5597L118.845 37.5596ZM122.531 42.7415C121.942 42.7415 121.516 42.5901 121.242 42.2872C120.961 41.9845 120.824 41.5723 120.824 41.0423C120.824 40.7058 120.875 40.3693 120.978 40.0244C121.077 39.6951 121.233 39.385 121.439 39.1074C121.643 38.8381 121.899 38.6196 122.215 38.443C122.522 38.2747 122.881 38.1904 123.299 38.1904C123.888 38.1904 124.323 38.3419 124.604 38.6532C124.878 38.9644 125.014 39.3767 125.014 39.9067C125.013 40.2536 124.964 40.5988 124.869 40.9329C124.767 41.2694 124.613 41.5723 124.408 41.8413C124.204 42.1104 123.948 42.3292 123.632 42.4891C123.316 42.6573 122.949 42.7415 122.531 42.7415ZM122.642 41.833C122.855 41.833 123.043 41.7656 123.188 41.6311C123.333 41.4967 123.461 41.3282 123.555 41.1264C123.649 40.9329 123.708 40.7225 123.751 40.4954C123.794 40.2768 123.811 40.0747 123.811 39.8981C123.811 39.385 123.598 39.1243 123.171 39.1243C122.958 39.1243 122.778 39.1915 122.633 39.3345C122.488 39.4775 122.377 39.6458 122.284 39.8476C122.19 40.0495 122.13 40.2599 122.096 40.487C122.057 40.6838 122.037 40.8838 122.036 41.0842C122.036 41.5806 122.241 41.833 122.642 41.833H122.642ZM126.345 40.1589C126.405 39.8057 126.456 39.4944 126.49 39.2168C126.516 38.9475 126.533 38.7373 126.533 38.5859V38.4261C126.533 38.3839 126.533 38.3419 126.524 38.2914C126.71 38.2579 126.899 38.241 127.088 38.2409C127.173 38.2409 127.258 38.2409 127.344 38.2494C127.429 38.258 127.523 38.2747 127.617 38.2914C127.625 38.3336 127.642 38.3924 127.651 38.4511C127.659 38.5098 127.668 38.6027 127.668 38.7289V38.8803C127.659 38.9308 127.651 38.9897 127.642 39.0654C127.711 38.9475 127.796 38.8383 127.898 38.7289C128.001 38.6196 128.12 38.5271 128.248 38.4513C128.376 38.3755 128.521 38.3083 128.675 38.2662C128.822 38.2227 128.974 38.2001 129.127 38.1989C129.468 38.1989 129.733 38.2831 129.929 38.4513C130.117 38.6279 130.211 38.9139 130.211 39.3093C130.211 39.3934 130.202 39.4861 130.194 39.5785C130.185 39.671 130.168 39.772 130.151 39.8812L129.656 42.6404C129.443 42.6742 129.229 42.6909 129.033 42.6909C128.837 42.6909 128.641 42.6742 128.445 42.6404L128.922 39.9737C128.946 39.8689 128.957 39.7617 128.956 39.6543C128.956 39.4861 128.922 39.3683 128.846 39.3009C128.769 39.2335 128.666 39.1999 128.53 39.1999C128.453 39.1999 128.359 39.2168 128.265 39.2588C128.163 39.3009 128.06 39.3767 127.958 39.5028C127.856 39.6289 127.753 39.814 127.659 40.0413C127.566 40.2686 127.48 40.5711 127.412 40.9496L127.096 42.6404C126.874 42.6742 126.67 42.6909 126.473 42.6909C126.277 42.6909 126.081 42.6742 125.884 42.6404L126.345 40.1589ZM132.37 40.7225C132.274 40.6879 132.182 40.6428 132.097 40.588C132.003 40.5375 131.926 40.4701 131.849 40.386C131.764 40.3104 131.704 40.2096 131.662 40.0916C131.61 39.9739 131.585 39.8309 131.585 39.671C131.585 39.4355 131.636 39.2253 131.73 39.0402C131.815 38.8634 131.952 38.7037 132.122 38.5774C132.284 38.4511 132.481 38.3588 132.711 38.2914C132.933 38.2242 133.172 38.1906 133.436 38.1906C133.531 38.1906 133.624 38.1906 133.735 38.1989C133.846 38.2073 133.957 38.2242 134.068 38.2409C134.179 38.2576 134.281 38.2831 134.392 38.3083C134.495 38.3417 134.588 38.3839 134.674 38.4261C134.665 38.569 134.64 38.712 134.597 38.855C134.554 39.0066 134.478 39.1496 134.384 39.2926C134.264 39.2337 134.119 39.183 133.949 39.141C133.778 39.0991 133.616 39.0822 133.462 39.0822C133.402 39.0822 133.334 39.0905 133.257 39.0989C133.181 39.1072 133.104 39.1327 133.035 39.1579C132.967 39.1832 132.907 39.2251 132.865 39.2842C132.822 39.3433 132.796 39.4103 132.796 39.4944C132.796 39.6627 132.908 39.7971 133.121 39.8898L133.454 40.0328C133.565 40.0747 133.667 40.1253 133.769 40.1841C133.976 40.303 134.14 40.4824 134.239 40.6972C134.281 40.8068 134.307 40.9412 134.307 41.0928C134.307 41.3702 134.247 41.6142 134.136 41.8161C134.028 42.022 133.87 42.1983 133.675 42.3292C133.479 42.4722 133.257 42.5732 132.993 42.6404C132.728 42.7077 132.447 42.7415 132.148 42.7415C131.969 42.7415 131.764 42.7247 131.542 42.6909C131.32 42.649 131.124 42.5985 130.945 42.5227C130.962 42.1947 131.047 41.8919 131.201 41.6142C131.38 41.69 131.559 41.7489 131.747 41.7739C131.926 41.8077 132.105 41.8244 132.276 41.8244C132.361 41.8244 132.455 41.8161 132.549 41.7994C132.643 41.7827 132.737 41.7572 132.814 41.7153C132.89 41.6733 132.959 41.6226 133.018 41.547C133.07 41.4796 133.095 41.3955 133.095 41.2944C133.095 41.1853 133.052 41.0928 132.976 41.017C132.899 40.9496 132.788 40.8907 132.643 40.8319L132.37 40.7225ZM138.608 36.5922C138.816 36.5522 139.027 36.5325 139.239 36.5334C139.435 36.5334 139.64 36.5501 139.836 36.5922L138.949 41.5806H140.963C140.963 41.6731 140.954 41.7656 140.946 41.8499C140.937 41.9424 140.92 42.0263 140.912 42.1021C140.894 42.1947 140.877 42.2789 140.852 42.363L140.775 42.6404H137.532L138.608 36.5922ZM142.814 39.1999H142.277L142.268 39.0905C142.268 38.9475 142.285 38.8045 142.311 38.6782C142.337 38.552 142.379 38.4261 142.439 38.2914H144.163L143.386 42.6406C143.173 42.674 142.968 42.6909 142.772 42.6909C142.593 42.6909 142.405 42.6742 142.2 42.6404L142.814 39.1999ZM143.062 37.5596C143.054 37.3707 143.069 37.1816 143.105 36.9959C143.13 36.8193 143.181 36.6342 143.25 36.4407C143.352 36.4156 143.463 36.4073 143.574 36.3904C143.685 36.3818 143.787 36.3818 143.881 36.3818C143.975 36.3818 144.077 36.3818 144.188 36.3904C144.299 36.4071 144.402 36.4156 144.495 36.4409C144.495 36.6342 144.478 36.8277 144.444 37.0043C144.411 37.1809 144.359 37.3661 144.291 37.5596C144.188 37.5763 144.086 37.5848 143.975 37.5932C143.864 37.6015 143.762 37.6017 143.668 37.6017C143.582 37.6017 143.48 37.6017 143.369 37.5932C143.258 37.5846 143.156 37.5765 143.062 37.5597V37.5596ZM145.46 40.1589C145.52 39.8057 145.571 39.4944 145.605 39.2168C145.631 38.9475 145.648 38.7373 145.648 38.5859V38.4261C145.648 38.3839 145.648 38.3419 145.639 38.2914C145.825 38.2579 146.014 38.241 146.202 38.2409C146.288 38.2409 146.373 38.2409 146.458 38.2494C146.544 38.258 146.637 38.2747 146.731 38.2914C146.74 38.3336 146.757 38.3924 146.765 38.4511C146.774 38.5098 146.783 38.6027 146.783 38.7289V38.8803C146.774 38.9308 146.765 38.9897 146.757 39.0654C146.885 38.8214 147.081 38.6196 147.346 38.4513C147.602 38.2831 147.883 38.1988 148.199 38.1988C148.498 38.1988 148.737 38.2662 148.907 38.3924C149.069 38.5271 149.172 38.7457 149.206 39.0485C149.343 38.8131 149.539 38.611 149.803 38.443C150.068 38.2831 150.35 38.1989 150.657 38.1989C150.998 38.1989 151.254 38.2831 151.433 38.443C151.612 38.611 151.698 38.8886 151.698 39.2757C151.698 39.4692 151.681 39.6712 151.638 39.8814L151.143 42.6404C150.93 42.6742 150.716 42.6909 150.52 42.6909C150.324 42.6909 150.128 42.6742 149.931 42.6404L150.409 39.9737C150.435 39.8476 150.443 39.7215 150.443 39.6122C150.443 39.4608 150.409 39.3514 150.349 39.2926C150.29 39.2337 150.187 39.1999 150.059 39.1999C149.982 39.1999 149.897 39.2168 149.803 39.2588C149.701 39.3009 149.607 39.3767 149.513 39.4861C149.419 39.5954 149.325 39.7553 149.24 39.9485C149.155 40.1416 149.086 40.4029 149.027 40.7141L148.685 42.6404C148.472 42.6742 148.259 42.6909 148.062 42.6909C147.866 42.6909 147.67 42.6742 147.474 42.6404L147.952 39.9737C147.977 39.8476 147.986 39.7215 147.986 39.6122C147.986 39.4608 147.952 39.3514 147.892 39.2926C147.832 39.2337 147.73 39.1999 147.602 39.1999C147.525 39.1999 147.431 39.2168 147.337 39.2588C147.243 39.3007 147.141 39.3767 147.047 39.5028C146.953 39.6289 146.859 39.814 146.765 40.0413C146.672 40.2686 146.595 40.5711 146.527 40.9496L146.211 42.6404C145.989 42.6742 145.784 42.6909 145.588 42.6909C145.392 42.6909 145.195 42.6742 144.999 42.6404L145.46 40.1589ZM153.524 39.1999H152.986L152.978 39.0905C152.978 38.9475 152.995 38.8045 153.02 38.6782C153.046 38.552 153.088 38.4261 153.148 38.2914H154.872L154.095 42.6406C153.882 42.674 153.677 42.6909 153.481 42.6909C153.302 42.6909 153.114 42.6742 152.909 42.6404L153.524 39.1999ZM153.771 37.5596C153.763 37.3707 153.778 37.1816 153.814 36.9959C153.839 36.8193 153.891 36.6342 153.959 36.4407C154.061 36.4156 154.172 36.4073 154.283 36.3904C154.394 36.3818 154.497 36.3818 154.59 36.3818C154.684 36.3818 154.787 36.3818 154.897 36.3904C155.009 36.4071 155.111 36.4156 155.205 36.4409C155.205 36.6342 155.188 36.8277 155.154 37.0043C155.12 37.1809 155.068 37.3661 155 37.5596C154.898 37.5763 154.795 37.5848 154.684 37.5932C154.573 37.6015 154.471 37.6017 154.377 37.6017C154.292 37.6017 154.189 37.6017 154.078 37.5932C153.967 37.5846 153.865 37.5765 153.771 37.5597L153.771 37.5596ZM156.417 39.1999H155.759C155.759 39.0485 155.768 38.8972 155.794 38.7542C155.819 38.6112 155.862 38.4513 155.922 38.2914H156.579L156.63 38.039C156.656 37.8961 156.673 37.7614 156.681 37.6353C156.69 37.5092 156.69 37.4082 156.69 37.3241C156.835 37.2316 157.023 37.1644 157.244 37.1222C157.466 37.0801 157.671 37.0634 157.859 37.0634C157.884 37.1475 157.901 37.2567 157.901 37.3828C157.901 37.4756 157.893 37.5679 157.884 37.6689C157.867 37.7783 157.85 37.8877 157.825 38.0138L157.773 38.2914H158.832C158.832 38.4597 158.815 38.611 158.789 38.7542C158.763 38.8974 158.721 39.0402 158.669 39.1999H157.611L157.313 40.8571C157.304 40.9329 157.296 41.0086 157.287 41.0759C157.278 41.1431 157.27 41.2105 157.27 41.2694C157.27 41.4124 157.304 41.5301 157.372 41.6142C157.441 41.6984 157.569 41.7405 157.756 41.7405C157.85 41.7405 157.936 41.732 158.012 41.7153C158.089 41.7067 158.157 41.69 158.217 41.6731C158.294 41.8328 158.328 42.0518 158.328 42.3125V42.4471C158.328 42.4891 158.328 42.5396 158.32 42.5816C158.072 42.6573 157.782 42.6911 157.441 42.6911C156.963 42.6911 156.613 42.6068 156.382 42.4302C156.152 42.2536 156.033 41.9676 156.033 41.5554C156.033 41.4712 156.041 41.3871 156.05 41.2946C156.058 41.2022 156.075 41.1095 156.092 41.0001L156.417 39.1999ZM160.521 40.9917C160.555 41.261 160.649 41.4629 160.794 41.589C160.939 41.7236 161.161 41.7908 161.442 41.7908C161.673 41.7908 161.869 41.7656 162.048 41.7153C162.219 41.6731 162.398 41.6057 162.595 41.5301C162.688 41.6395 162.748 41.7825 162.782 41.9338C162.808 42.0937 162.825 42.2703 162.825 42.4471C162.731 42.4891 162.62 42.5312 162.492 42.5649C162.364 42.6068 162.228 42.6321 162.091 42.6657C161.954 42.6909 161.818 42.7078 161.681 42.7246C161.545 42.7331 161.425 42.7415 161.315 42.7415C160.965 42.7415 160.674 42.6995 160.427 42.6152C160.171 42.5312 159.975 42.4133 159.813 42.2536C159.651 42.1021 159.522 41.9171 159.454 41.69C159.377 41.4712 159.335 41.2272 159.335 40.9581C159.335 40.6133 159.395 40.2766 159.514 39.9486C159.633 39.6207 159.804 39.3178 160.026 39.0569C160.239 38.8045 160.512 38.5859 160.828 38.4261C161.144 38.2662 161.494 38.1906 161.886 38.1906C162.074 38.1906 162.253 38.2157 162.415 38.2578C162.569 38.2998 162.714 38.3755 162.833 38.4597C162.953 38.5521 163.047 38.6701 163.115 38.8045C163.183 38.939 163.217 39.099 163.217 39.2757C163.217 39.528 163.158 39.7468 163.038 39.9317C162.919 40.1167 162.757 40.2768 162.56 40.4029C162.364 40.529 162.134 40.6384 161.886 40.7141C161.63 40.7982 161.366 40.8571 161.093 40.8993L160.521 40.9917ZM161.007 40.1338C161.221 40.1 161.4 40.058 161.536 39.9992C161.673 39.9486 161.784 39.8896 161.861 39.8224C161.938 39.7635 161.997 39.6963 162.023 39.629C162.048 39.5618 162.065 39.4944 162.065 39.427C162.065 39.3178 162.031 39.2337 161.963 39.1663C161.886 39.0991 161.792 39.0654 161.673 39.0654C161.528 39.0654 161.391 39.0989 161.272 39.1579C161.144 39.2251 161.041 39.3093 160.948 39.4186C160.854 39.528 160.777 39.6458 160.717 39.7804C160.649 39.9234 160.598 40.058 160.563 40.201L161.007 40.1338ZM167.04 39.1917C166.989 39.1832 166.938 39.1746 166.895 39.1663H166.75C166.477 39.1663 166.247 39.2337 166.059 39.3681C165.863 39.5028 165.709 39.671 165.581 39.8729C165.453 40.0747 165.368 40.2935 165.308 40.5206C165.248 40.7563 165.223 40.9665 165.223 41.16C165.223 41.5723 165.359 41.7825 165.641 41.7825C165.914 41.7825 166.17 41.6142 166.4 41.2861C166.631 40.958 166.802 40.5039 166.912 39.9065L167.04 39.1917ZM167.954 40.7563C167.894 41.1095 167.842 41.4207 167.817 41.69C167.791 41.9676 167.774 42.1778 167.774 42.3292V42.4807C167.774 42.5312 167.774 42.5732 167.783 42.6237C167.595 42.6573 167.407 42.6742 167.228 42.6742C167.066 42.6742 166.895 42.6573 166.699 42.6237C166.69 42.5816 166.674 42.5227 166.665 42.464C166.657 42.4053 166.648 42.3125 166.648 42.1862C166.648 42.1359 166.648 42.0768 166.656 42.0096C166.656 41.9424 166.665 41.875 166.673 41.7994C166.595 41.9307 166.5 42.0521 166.392 42.1609C166.272 42.2789 166.153 42.3797 166.025 42.4638C165.888 42.548 165.743 42.6154 165.59 42.6657C165.436 42.716 165.274 42.7415 165.103 42.7415C164.728 42.7415 164.446 42.6237 164.259 42.3881C164.071 42.1524 163.977 41.8413 163.977 41.4543C163.977 41.0337 164.045 40.63 164.173 40.2346C164.301 39.8393 164.489 39.4944 164.745 39.1915C164.992 38.8888 165.308 38.6448 165.684 38.4599C166.059 38.2831 166.494 38.1906 166.998 38.1906L167.211 38.1989C167.271 37.8708 167.322 37.5848 167.348 37.3577C167.373 37.1306 167.382 36.9371 167.382 36.7857V36.626C167.373 36.5839 167.373 36.5417 167.365 36.4912C167.459 36.4745 167.569 36.4578 167.698 36.4492C167.826 36.4407 167.928 36.4409 168.022 36.4409C168.184 36.4409 168.372 36.4576 168.568 36.4912C168.593 36.5753 168.611 36.6847 168.611 36.811C168.611 37.0548 168.576 37.3577 168.508 37.7111L167.954 40.7563Z" fill="#797B79"/>
<path fill-rule="evenodd" clip-rule="evenodd" d="M55.6331 7.10308H56.8187V44.7019H55.6331V7.10308Z" fill="#7E8691"/>
<path fill-rule="evenodd" clip-rule="evenodd" d="M30.1775 25.0144L24.3088 15.0259H36.0442L30.1775 25.0144Z" fill="#2F76A6"/>
<path fill-rule="evenodd" clip-rule="evenodd" d="M30.1773 25.0144H18.4801L24.3085 15.0259L30.1773 25.0144Z" fill="#408BBE"/>
<path fill-rule="evenodd" clip-rule="evenodd" d="M24.3101 35.006L18.4816 25.015H30.1785L24.3101 35.006Z" fill="#AE3A2F"/>
<path fill-rule="evenodd" clip-rule="evenodd" d="M24.3082 35.006H12.6123L18.4795 25.015L24.3082 35.006Z" fill="#D4483C"/>
<path fill-rule="evenodd" clip-rule="evenodd" d="M17.4489 23.7542L5.79727 23.7594L11.6474 13.7295L17.4489 23.7542Z" fill="#7B4689"/>
<path fill-rule="evenodd" clip-rule="evenodd" d="M17.4504 23.755L11.6013 33.7867L5.79903 23.7602L17.4504 23.755Z" fill="#A172A3"/>
<path fill-rule="evenodd" clip-rule="evenodd" d="M11.6505 13.7321L0 13.7377L5.84916 3.70651L11.6505 13.7321Z" fill="#1B9579"/>
<path fill-rule="evenodd" clip-rule="evenodd" d="M11.6505 13.7321L5.80244 23.7639L0 13.7377L11.6505 13.7321Z" fill="#2AAE8D"/>
<path fill-rule="evenodd" clip-rule="evenodd" d="M18.4425 44.9925L12.6141 35.0058H24.3097L18.4425 44.9925Z" fill="#E6942F"/>
<path fill-rule="evenodd" clip-rule="evenodd" d="M18.442 44.9925H6.74649L12.6135 35.0058L18.442 44.9925Z" fill="#E7BE2A"/>
<path fill-rule="evenodd" clip-rule="evenodd" d="M36.0432 15.0258L30.1764 5.03679H41.9071L36.0432 15.0258Z" fill="#101829"/>
<path fill-rule="evenodd" clip-rule="evenodd" d="M36.0444 15.0265H24.309L30.1773 5.03765L36.0444 15.0265Z" fill="#394255"/>
</g>
<defs>
<clipPath id="clip0_285_97">
<rect width="180" height="45" fill="white"/>
</clipPath>
</defs>
</svg>
